<?xml version="1.0" standalone="no"?>
<!DOCTYPE svg PUBLIC "-//W3C//DTD SVG 20010904//EN"
 "http://www.w3.org/TR/2001/REC-SVG-20010904/DTD/svg10.dtd">
<svg version="1.0" xmlns="http://www.w3.org/2000/svg"
 width="429.000000pt" height="429.000000pt" viewBox="0 0 429.000000 429.000000"
 preserveAspectRatio="xMidYMid meet">

<g transform="translate(0.000000,429.000000) scale(0.100000,-0.100000)"
fill="#000000" stroke="none">
<path d="M1880 3985 c-1165 -159 -1922 -1298 -1619 -2435 17 -63 51 -164 75
-225 47 -114 153 -315 166 -315 5 0 8 10 8 23 0 43 82 263 134 362 53 101 163
279 241 390 23 33 45 66 49 73 5 9 -24 27 -101 63 -166 78 -379 168 -472 200
-87 30 -114 45 -105 60 3 5 20 9 37 9 48 0 82 11 65 21 -21 13 13 40 60 46 29
4 39 9 35 19 -10 26 17 45 53 38 27 -5 34 -3 34 10 0 9 -13 22 -30 28 -29 13
-29 13 -11 37 l18 24 59 -21 c32 -11 76 -27 96 -36 23 -10 39 -12 43 -6 7 11
-6 17 -115 51 -41 13 -77 25 -79 26 -8 6 34 32 50 33 9 0 43 -12 75 -26 92
-41 106 -46 98 -33 -5 9 6 11 37 7 39 -4 156 -52 396 -163 l71 -33 59 50 c93
79 241 174 389 249 152 76 184 84 184 44 0 -24 1 -25 53 -19 48 6 56 4 85 -21
50 -42 43 -55 -58 -100 -120 -53 -122 -69 -5 -36 48 14 75 17 87 10 17 -9 19
-14 22 -49 1 -11 11 -14 36 -11 84 10 95 7 93 -16 -3 -28 -1 -28 152 -3 150
25 145 25 145 -4 0 -28 0 -28 -120 -51 -202 -40 -448 -140 -613 -250 -48 -31
-87 -60 -86 -64 0 -3 66 -55 147 -116 323 -242 537 -506 663 -816 46 -113 89
-246 89 -276 0 -7 -11 -13 -24 -13 -20 0 -24 -6 -29 -44 -9 -63 -26 -93 -59
-107 -31 -12 -47 -3 -48 27 0 7 -7 25 -15 40 -8 16 -15 38 -15 49 0 11 -9 38
-20 60 l-20 40 7 -60 c3 -33 7 -80 7 -105 l1 -45 -43 -3 -44 -3 7 -60 c7 -62
6 -64 -37 -60 -16 2 -18 -11 -18 -147 0 -129 -2 -151 -16 -156 -36 -14 -44 11
-44 139 0 413 -199 816 -565 1147 -91 82 -240 198 -255 198 -26 0 -212 -274
-276 -407 -108 -224 -146 -338 -180 -532 l-18 -104 44 -39 c77 -67 250 -177
376 -239 498 -243 1076 -262 1589 -52 61 24 139 61 175 80 l65 36 -12 180
c-22 331 -62 1088 -79 1477 -8 212 -17 387 -19 389 -2 2 -108 -23 -234 -55
-173 -44 -233 -56 -242 -47 -12 12 10 40 61 75 l25 18 -29 -6 c-26 -6 -28 -5
-21 17 3 13 24 40 46 60 27 25 34 36 22 35 -12 0 -19 7 -21 22 -3 18 3 26 27
35 36 13 46 52 11 43 -11 -3 -28 -8 -38 -11 -14 -4 -18 1 -17 27 0 30 3 33 57
49 31 9 77 20 102 23 25 4 49 12 52 18 10 16 -70 4 -147 -22 -34 -12 -63 -19
-65 -17 -3 2 0 15 5 28 7 21 24 29 99 48 61 16 98 31 113 47 27 28 54 38 184
63 55 11 120 27 144 35 24 9 51 16 60 16 9 0 69 -37 132 -83 l114 -83 7 -139
c4 -77 12 -268 18 -425 6 -157 17 -346 25 -420 24 -213 43 -482 56 -774 l13
-268 28 33 c238 281 381 568 455 916 25 118 27 146 28 368 0 245 -6 304 -46
470 -83 336 -252 644 -493 893 -313 324 -719 525 -1176 582 -112 13 -362 11
-480 -5z m1315 -342 c13 -21 29 -53 36 -70 9 -27 15 -32 33 -27 13 3 27 0 33
-8 5 -7 27 -78 48 -158 33 -126 38 -159 37 -249 0 -57 -5 -108 -10 -113 -5 -5
-102 -16 -217 -25 -192 -14 -209 -14 -220 1 -9 11 -28 16 -68 16 l-56 0 -10
38 c-5 20 -19 75 -31 121 -12 46 -32 106 -46 132 -13 27 -24 58 -24 70 0 18 5
21 33 17 l34 -4 -19 61 c-34 108 -43 100 197 171 116 34 213 62 217 63 4 0 19
-16 33 -36z m-1748 -465 c5 -7 29 -78 52 -158 77 -261 83 -281 88 -276 9 9 43
-14 43 -29 0 -19 -94 -99 -170 -145 -129 -77 -341 -127 -451 -106 l-34 6 -63
183 -63 182 38 65 c79 133 163 200 313 249 107 35 231 49 247 29z"/>
<path d="M1493 2692 c-56 -23 -84 -52 -50 -52 16 0 102 53 111 69 4 6 6 10 4
10 -2 -1 -31 -13 -65 -27z"/>
</g>
</svg>
